<svg xmlns="http://www.w3.org/2000/svg" width="30" height="30" viewBox="0 0 101 101" fill="none"> <path d="M39.514 85.637C43.489 87.863 47.404 88.981 51.051 88.981C54.104 88.98 56.969 88.196 59.519 86.622L68.918 80.824C69.257 80.615 69.499 80.281 69.591 79.893C69.683 79.506 69.616 79.098 69.407 78.759L61.26 65.555C61.051 65.217 60.716 64.975 60.329 64.883C59.939 64.792 59.533 64.858 59.195 65.067L49.725 70.912C48.269 71.81 46.401 72.097 44.604 71.702C42.807 71.306 41.273 70.264 40.395 68.84L27.524 47.981C25.663 44.965 26.601 40.997 29.615 39.136L29.616 39.135L39.445 33.067C40.15 32.632 40.368 31.708 39.933 31.003L31.785 17.802C31.35 17.097 30.425 16.876 29.721 17.313L19.9 23.375C8.95401 30.131 9.33801 47.866 20.836 66.504C26.107 75.05 32.741 81.845 39.514 85.637ZM21.477 25.927L30.021 20.654L36.594 31.302L28.041 36.582C28.039 36.583 28.037 36.585 28.037 36.585C23.619 39.316 22.243 45.133 24.972 49.555L37.843 70.413C39.144 72.524 41.374 74.061 43.96 74.631C46.511 75.19 49.188 74.767 51.301 73.463L59.494 68.406L66.066 79.056L57.943 84.067C52.011 87.727 45.444 85.517 40.98 83.018C34.645 79.47 28.397 73.046 23.389 64.928C12.819 47.794 12.033 31.756 21.477 25.927Z" fill="#fff"/> <path d="M49.58 33.552C54.434 33.839 58.73 36.333 61.368 40.396C63.89 44.268 64.497 49.013 63.032 53.415C62.77 54.201 63.195 55.051 63.981 55.311C64.138 55.364 64.297 55.388 64.455 55.388C65.084 55.388 65.669 54.991 65.878 54.362C67.634 49.088 66.906 43.4 63.883 38.76C60.769 33.962 55.487 30.895 49.757 30.556C48.922 30.521 48.22 31.138 48.171 31.965C48.122 32.793 48.753 33.503 49.58 33.552Z" fill="#fff"/> <path d="M51.68 22.418C59.54 23.321 66.517 27.634 70.822 34.249C74.993 40.662 76.175 48.558 74.064 55.913C73.835 56.71 74.295 57.54 75.091 57.768C75.23 57.808 75.368 57.827 75.506 57.827C76.157 57.827 76.758 57.398 76.946 56.741C79.297 48.55 77.981 39.755 73.336 32.613C68.542 25.246 60.774 20.444 52.022 19.438C51.215 19.343 50.456 19.934 50.361 20.757C50.266 21.58 50.856 22.323 51.68 22.418Z" fill="#fff"/> <path d="M53.731 12.612C64.17 14.063 73.452 19.963 79.198 28.8C84.827 37.447 86.515 48.127 83.831 58.101C83.615 58.901 84.09 59.724 84.89 59.939C85.02 59.974 85.152 59.991 85.281 59.991C85.942 59.991 86.549 59.551 86.728 58.881C89.634 48.085 87.806 36.524 81.713 27.164C75.493 17.599 65.445 11.212 54.146 9.641C53.329 9.532 52.567 10.099 52.454 10.92C52.339 11.74 52.911 12.498 53.731 12.612Z" fill="#fff"/> </svg>