<svg width="25" height="25" viewBox="0 0 25 25" fill="none" xmlns="http://www.w3.org/2000/svg">
<path d="M12.5 25C19.4036 25 25 19.4036 25 12.5C25 5.59644 19.4036 0 12.5 0C5.59644 0 0 5.59644 0 12.5C0 19.4036 5.59644 25 12.5 25Z" fill="url(#paint0_linear_5_19)"/>
<path fill-rule="evenodd" clip-rule="evenodd" d="M5.65822 12.368C9.30223 10.7804 11.7321 9.73375 12.9479 9.22805C16.4193 7.78418 17.1406 7.53337 17.6108 7.52509C17.7142 7.52327 17.9454 7.54889 18.0952 7.67042C18.2216 7.77303 18.2564 7.91164 18.2731 8.00893C18.2897 8.10622 18.3105 8.32784 18.294 8.50101C18.1059 10.4776 17.2919 15.2741 16.8778 17.4879C16.7026 18.4246 16.3575 18.7387 16.0235 18.7694C15.2976 18.8362 14.7464 18.2897 14.0433 17.8288C12.9432 17.1076 12.3217 16.6587 11.2538 15.955C10.0196 15.1417 10.8197 14.6947 11.523 13.9642C11.7071 13.773 14.9054 10.8639 14.9673 10.6C14.975 10.567 14.9822 10.444 14.9091 10.379C14.836 10.314 14.7282 10.3363 14.6503 10.3539C14.54 10.379 12.7825 11.5406 9.37775 13.8389C8.87888 14.1815 8.42702 14.3484 8.02217 14.3396C7.57586 14.33 6.71733 14.0873 6.0791 13.8798C5.29629 13.6253 4.67412 13.4908 4.7283 13.0586C4.75652 12.8336 5.06649 12.6034 5.65822 12.368Z" fill="white"/>
<defs>
<linearGradient id="paint0_linear_5_19" x1="12.5" y1="0" x2="12.5" y2="24.8146" gradientUnits="userSpaceOnUse">
<stop stop-color="#2CA4E0"/>
<stop offset="1" stop-color="#0D83BF"/>
</linearGradient>
</defs>
</svg>
