<svg width="30px" height="30px" viewBox="0 0 100 100" fill="none" xmlns="http://www.w3.org/2000/svg"><path fill-rule="evenodd" clip-rule="evenodd" d="M50 100c27.614 0 50-22.386 50-50S77.614 0 50 0 0 22.386 0 50s22.386 50 50 50Zm-5.08-76.414a48.135 48.135 0 0 0 2.187-.422c.324-.08 1.735-.153 3.134-.163 2.047-.013 3.002.067 4.89.41 7.843 1.428 13.918 5.42 18.472 12.135 1.99 2.934 3.603 7.076 4.066 10.44.313 2.276.265 7.758-.084 9.632-.373 2.006-1.503 5.362-2.424 7.2-2.132 4.25-5.556 8.135-9.378 10.638-1.183.774-3.108 1.843-3.838 2.13-.324.127-.669.291-.766.364-.387.29-3.382 1.191-5.337 1.604-1.807.382-2.488.44-5.279.445-2.862.007-3.437-.042-5.395-.455-3.863-.814-7.02-2.082-9.589-3.85-.587-.404-1.059-.363-4.407.381-3.654.812-4.57.94-4.88.682-.382-.316-.335-.8.4-4.153.749-3.409.938-4.215.702-4.867-.082-.227-.216-.436-.397-.731-2.693-4.394-3.984-9.062-3.997-14.46-.012-4.75.867-8.55 2.898-12.526.727-1.424 2.002-3.481 2.66-4.293.753-.927 4.735-4.855 5.312-5.24 2.412-1.604 2.967-1.933 4.722-2.79 1.91-.934 4.466-1.787 6.329-2.11Zm-4.47 22.33c-.949-2.514-1.303-3.314-1.605-3.615-.316-.317-.585-.352-3.088-.4-2.973-.058-3.103-.022-3.396.94-.119.39.636 3.353.932 3.657a.624.624 0 0 1 .156.375c0 .21.655 1.726 1.42 3.283.396.807 2.79 4.884 2.955 5.034.051.047.547.692 1.102 1.433 1.524 2.037 3.773 4.03 5.762 5.105 1.877 1.015 4.904 1.58 7.043 1.312 1.52-.19 1.615-.358 1.615-2.881 0-3.283.375-3.786 2.166-2.903.73.36 3.253 2.726 4.916 4.61.417.473.924.947 1.127 1.054.385.204 5.693.285 6.19.094.496-.19.516-1.17.043-2.138-.546-1.117-2.396-3.43-4.437-5.55-1.08-1.121-1.575-1.76-1.575-2.033 0-.34.841-1.897 1.161-2.15.107-.084.956-1.339 1.282-1.893.094-.16.636-1.07 1.204-2.023 1.464-2.455 1.755-3.08 1.864-4.002.088-.74.057-.84-.335-1.097-.367-.24-.822-.275-3.044-.228-2.49.051-2.631.073-3.043.46-.237.223-.479.565-.536.758-.168.565-1.947 4.025-2.2 4.278-.127.127-.23.305-.23.397 0 .281-1.514 2.377-2.339 3.24-.903.943-1.416 1.2-1.888.947-.31-.165-.326-.399-.329-4.679-.002-3.293-.06-4.617-.216-4.926l-.213-.421H45.35l-.25.447c-.24.425-.219.501.414 1.518l.666 1.07v4.3c0 4.29 0 4.3-.367 4.352-.5.07-1.505-.864-2.465-2.296-.797-1.188-2.506-4.389-2.898-5.429Z" fill="#fff"></path></svg>