<svg width="25" height="25" viewBox="0 0 25 25" fill="none" xmlns="http://www.w3.org/2000/svg">
<mask id="mask0_6_10" style="mask-type:alpha" maskUnits="userSpaceOnUse" x="0" y="0" width="25" height="25">
<circle cx="12.5" cy="12.5" r="12.5" fill="#D9D9D9"/>
</mask>
<g mask="url(#mask0_6_10)">
<path d="M0 12C0 6.34312 0 3.51472 1.75736 1.75736C3.51472 0 6.34312 0 12 0H13C18.6569 0 21.4853 0 23.2427 1.75736C25 3.51472 25 6.34312 25 12V13C25 18.6569 25 21.4853 23.2427 23.2427C21.4853 25 18.6569 25 13 25H12C6.34312 25 3.51472 25 1.75736 23.2427C0 21.4853 0 18.6569 0 13V12Z" fill="url(#paint0_linear_6_10)"/>
<path d="M17.4784 7.53611C16.1813 6.21643 14.3884 5.5 12.5573 5.5C8.6663 5.5 5.53817 8.62957 5.57629 12.4378C5.57629 13.6444 5.91962 14.8134 6.49187 15.8691L5.5 19.4511L9.20032 18.5085C10.2303 19.0741 11.3747 19.3381 12.5192 19.3381C16.3721 19.3381 19.5002 16.2084 19.5002 12.4002C19.5002 10.5526 18.7753 8.81811 17.4784 7.53611ZM12.5573 18.1692C11.5273 18.1692 10.4973 17.9053 9.61994 17.3774L9.39107 17.2643L7.17852 17.8298L7.75072 15.6806L7.59814 15.4544C5.91962 12.7773 6.72073 9.23287 9.46736 7.57378C12.214 5.91476 15.7617 6.70659 17.4403 9.42141C19.1187 12.1362 18.3176 15.6429 15.571 17.3019C14.6936 17.8675 13.6255 18.1692 12.5573 18.1692ZM15.9143 13.9839L15.4947 13.7954C15.4947 13.7954 14.8844 13.5314 14.5029 13.3429C14.4647 13.3429 14.4266 13.3051 14.3884 13.3051C14.274 13.3051 14.1977 13.3429 14.1214 13.3806C14.1214 13.3806 14.0833 13.4183 13.5492 14.0216C13.511 14.097 13.4347 14.1347 13.3584 14.1347H13.3203C13.2821 14.1347 13.2059 14.097 13.1677 14.0593L12.9769 13.9839C12.5573 13.7954 12.1759 13.5691 11.8707 13.2675C11.7944 13.1921 11.6799 13.1166 11.6036 13.0412C11.3366 12.7773 11.0695 12.4756 10.8788 12.1363L10.8407 12.0609C10.8026 12.0231 10.8026 11.9855 10.7644 11.9101C10.7644 11.8346 10.7644 11.7592 10.8026 11.7215C10.8026 11.7215 10.9551 11.533 11.0695 11.4199C11.1459 11.3444 11.184 11.2314 11.2603 11.1559C11.3366 11.0428 11.3748 10.892 11.3366 10.7789C11.2985 10.5903 10.8407 9.57227 10.7263 9.34605C10.6499 9.23292 10.5737 9.19524 10.4592 9.15751H10.0396C9.96327 9.15751 9.88703 9.19524 9.81069 9.19524L9.77252 9.23292C9.69623 9.27065 9.61994 9.34605 9.54365 9.38373C9.46736 9.45919 9.42919 9.53454 9.3529 9.61C9.08586 9.94935 8.93328 10.3641 8.93328 10.7789C8.93328 11.0805 9.00957 11.3822 9.12403 11.6461L9.1622 11.7592C9.50553 12.4756 9.96327 13.1166 10.5737 13.6822L10.7263 13.833C10.8407 13.9462 10.9551 14.0216 11.0314 14.1346C11.8325 14.8134 12.7481 15.3036 13.778 15.5675C13.8925 15.6052 14.0451 15.6052 14.1595 15.6429H14.541C14.7317 15.6429 14.9606 15.5675 15.1132 15.4921C15.2276 15.4167 15.3039 15.4167 15.3802 15.3413L15.4566 15.2658C15.5329 15.1904 15.6091 15.1528 15.6854 15.0774C15.7617 15.0019 15.838 14.9265 15.8762 14.8511C15.9525 14.7003 15.9906 14.5117 16.0288 14.3232V14.0593C16.0288 14.0593 15.9906 14.0216 15.9143 13.9839Z" fill="white"/>
</g>
<defs>
<linearGradient id="paint0_linear_6_10" x1="12.5" y1="0" x2="12.5" y2="25" gradientUnits="userSpaceOnUse">
<stop stop-color="#42E760"/>
<stop offset="0.765625" stop-color="#29CB4A"/>
</linearGradient>
</defs>
</svg>
